<mxfile host="app.diagrams.net" modified="2021-03-04T00:39:12.669Z" agent="5.0 (Windows NT 10.0; Win64; x64) AppleWebKit/537.36 (KHTML, like Gecko) Chrome/88.0.4324.190 Safari/537.36" etag="E3lYjEIpvPfJL8FB7pUW" version="14.1.9" type="github">
  <diagram id="V34aoCAid4Su116UmgID" name="Page-1">
    <mxGraphModel dx="1832" dy="1668" grid="1" gridSize="10" guides="1" tooltips="1" connect="1" arrows="1" fold="1" page="1" pageScale="1" pageWidth="850" pageHeight="1100" math="0" shadow="0">
      <root>
        <mxCell id="0" />
        <mxCell id="1" parent="0" />
        <mxCell id="kHE8tbStHbq54br11AbI-16" style="edgeStyle=orthogonalEdgeStyle;rounded=0;orthogonalLoop=1;jettySize=auto;html=1;exitX=1;exitY=0.5;exitDx=0;exitDy=0;" edge="1" parent="1" source="kHE8tbStHbq54br11AbI-1" target="kHE8tbStHbq54br11AbI-15">
          <mxGeometry relative="1" as="geometry" />
        </mxCell>
        <mxCell id="kHE8tbStHbq54br11AbI-44" style="edgeStyle=orthogonalEdgeStyle;rounded=0;orthogonalLoop=1;jettySize=auto;html=1;exitX=1;exitY=0.75;exitDx=0;exitDy=0;entryX=0;entryY=0.25;entryDx=0;entryDy=0;startArrow=classic;startFill=1;" edge="1" parent="1" source="kHE8tbStHbq54br11AbI-1" target="kHE8tbStHbq54br11AbI-39">
          <mxGeometry relative="1" as="geometry" />
        </mxCell>
        <mxCell id="kHE8tbStHbq54br11AbI-1" value="Inbox" style="rounded=0;whiteSpace=wrap;html=1;strokeWidth=3;" vertex="1" parent="1">
          <mxGeometry x="160" y="30" width="120" height="80" as="geometry" />
        </mxCell>
        <mxCell id="kHE8tbStHbq54br11AbI-3" value="&lt;h1&gt;DataLake&lt;/h1&gt;&lt;p&gt;Manage all blocks&lt;/p&gt;&lt;p&gt;#tag group/search/recommend&lt;/p&gt;&lt;p&gt;#todo&lt;/p&gt;&lt;p&gt;/command automate&lt;/p&gt;&lt;p&gt;@user&lt;/p&gt;&lt;p&gt;+tracker&lt;/p&gt;&lt;p&gt;revision&lt;/p&gt;" style="text;html=1;strokeColor=none;fillColor=none;spacing=5;spacingTop=-20;whiteSpace=wrap;overflow=hidden;rounded=0;" vertex="1" parent="1">
          <mxGeometry x="154" y="109" width="190" height="251" as="geometry" />
        </mxCell>
        <mxCell id="kHE8tbStHbq54br11AbI-8" style="edgeStyle=orthogonalEdgeStyle;rounded=0;orthogonalLoop=1;jettySize=auto;html=1;exitX=1;exitY=0.5;exitDx=0;exitDy=0;" edge="1" parent="1" source="kHE8tbStHbq54br11AbI-5" target="kHE8tbStHbq54br11AbI-1">
          <mxGeometry relative="1" as="geometry" />
        </mxCell>
        <mxCell id="kHE8tbStHbq54br11AbI-5" value="webhook" style="shape=step;perimeter=stepPerimeter;whiteSpace=wrap;html=1;fixedSize=1;rounded=0;strokeWidth=1;" vertex="1" parent="1">
          <mxGeometry x="-30" y="60" width="110" height="20" as="geometry" />
        </mxCell>
        <mxCell id="kHE8tbStHbq54br11AbI-9" style="edgeStyle=orthogonalEdgeStyle;rounded=0;orthogonalLoop=1;jettySize=auto;html=1;exitX=1;exitY=0.5;exitDx=0;exitDy=0;entryX=0;entryY=0.75;entryDx=0;entryDy=0;" edge="1" parent="1" source="kHE8tbStHbq54br11AbI-7" target="kHE8tbStHbq54br11AbI-1">
          <mxGeometry relative="1" as="geometry" />
        </mxCell>
        <mxCell id="kHE8tbStHbq54br11AbI-7" value="app ui" style="shape=step;perimeter=stepPerimeter;whiteSpace=wrap;html=1;fixedSize=1;rounded=0;strokeWidth=1;" vertex="1" parent="1">
          <mxGeometry x="-30" y="80" width="110" height="20" as="geometry" />
        </mxCell>
        <mxCell id="kHE8tbStHbq54br11AbI-13" style="edgeStyle=orthogonalEdgeStyle;rounded=0;orthogonalLoop=1;jettySize=auto;html=1;exitX=0;exitY=0.25;exitDx=0;exitDy=0;entryX=1;entryY=0.5;entryDx=0;entryDy=0;" edge="1" parent="1" source="kHE8tbStHbq54br11AbI-11" target="kHE8tbStHbq54br11AbI-12">
          <mxGeometry relative="1" as="geometry" />
        </mxCell>
        <mxCell id="kHE8tbStHbq54br11AbI-21" style="edgeStyle=orthogonalEdgeStyle;rounded=0;orthogonalLoop=1;jettySize=auto;html=1;exitX=1;exitY=0.25;exitDx=0;exitDy=0;entryX=0;entryY=0.25;entryDx=0;entryDy=0;" edge="1" parent="1" source="kHE8tbStHbq54br11AbI-11" target="kHE8tbStHbq54br11AbI-18">
          <mxGeometry relative="1" as="geometry" />
        </mxCell>
        <mxCell id="kHE8tbStHbq54br11AbI-33" style="edgeStyle=orthogonalEdgeStyle;rounded=0;orthogonalLoop=1;jettySize=auto;html=1;exitX=0.75;exitY=0;exitDx=0;exitDy=0;entryX=0.75;entryY=1;entryDx=0;entryDy=0;" edge="1" parent="1" source="kHE8tbStHbq54br11AbI-11" target="kHE8tbStHbq54br11AbI-30">
          <mxGeometry relative="1" as="geometry" />
        </mxCell>
        <mxCell id="kHE8tbStHbq54br11AbI-11" value="Automate" style="rounded=0;whiteSpace=wrap;html=1;strokeWidth=3;" vertex="1" parent="1">
          <mxGeometry x="402" y="30" width="120" height="81" as="geometry" />
        </mxCell>
        <mxCell id="kHE8tbStHbq54br11AbI-14" style="edgeStyle=orthogonalEdgeStyle;rounded=0;orthogonalLoop=1;jettySize=auto;html=1;exitX=0;exitY=0.5;exitDx=0;exitDy=0;entryX=1;entryY=0.25;entryDx=0;entryDy=0;" edge="1" parent="1" source="kHE8tbStHbq54br11AbI-12" target="kHE8tbStHbq54br11AbI-1">
          <mxGeometry relative="1" as="geometry" />
        </mxCell>
        <mxCell id="kHE8tbStHbq54br11AbI-12" value="scrawler" style="rounded=1;whiteSpace=wrap;html=1;strokeWidth=1;" vertex="1" parent="1">
          <mxGeometry x="310" y="41" width="56" height="19" as="geometry" />
        </mxCell>
        <mxCell id="kHE8tbStHbq54br11AbI-17" style="edgeStyle=orthogonalEdgeStyle;rounded=0;orthogonalLoop=1;jettySize=auto;html=1;exitX=1;exitY=0.5;exitDx=0;exitDy=0;entryX=0;entryY=0.5;entryDx=0;entryDy=0;" edge="1" parent="1" source="kHE8tbStHbq54br11AbI-15" target="kHE8tbStHbq54br11AbI-11">
          <mxGeometry relative="1" as="geometry" />
        </mxCell>
        <mxCell id="kHE8tbStHbq54br11AbI-15" value="trigger" style="rounded=1;whiteSpace=wrap;html=1;strokeWidth=1;" vertex="1" parent="1">
          <mxGeometry x="310" y="60.5" width="56" height="19" as="geometry" />
        </mxCell>
        <mxCell id="kHE8tbStHbq54br11AbI-25" style="edgeStyle=orthogonalEdgeStyle;rounded=0;orthogonalLoop=1;jettySize=auto;html=1;exitX=0.25;exitY=1;exitDx=0;exitDy=0;entryX=0.25;entryY=0;entryDx=0;entryDy=0;" edge="1" parent="1" source="kHE8tbStHbq54br11AbI-18" target="kHE8tbStHbq54br11AbI-24">
          <mxGeometry relative="1" as="geometry" />
        </mxCell>
        <mxCell id="kHE8tbStHbq54br11AbI-18" value="Database" style="rounded=0;whiteSpace=wrap;html=1;strokeWidth=3;" vertex="1" parent="1">
          <mxGeometry x="640" y="30" width="120" height="81" as="geometry" />
        </mxCell>
        <mxCell id="kHE8tbStHbq54br11AbI-23" value="&lt;h1&gt;Scheduled Job/Service&lt;/h1&gt;&lt;p&gt;Manage all automations&lt;/p&gt;" style="text;html=1;strokeColor=none;fillColor=none;spacing=5;spacingTop=-20;whiteSpace=wrap;overflow=hidden;rounded=0;" vertex="1" parent="1">
          <mxGeometry x="394" y="110" width="190" height="120" as="geometry" />
        </mxCell>
        <mxCell id="kHE8tbStHbq54br11AbI-24" value="Docs&lt;br&gt;(Ref)" style="rounded=0;whiteSpace=wrap;html=1;strokeWidth=3;" vertex="1" parent="1">
          <mxGeometry x="640" y="240" width="120" height="81" as="geometry" />
        </mxCell>
        <mxCell id="kHE8tbStHbq54br11AbI-29" value="&lt;h1&gt;Interactive Docs&lt;/h1&gt;&lt;p&gt;Make data alive (OT)&lt;/p&gt;" style="text;html=1;strokeColor=none;fillColor=none;spacing=5;spacingTop=-20;whiteSpace=wrap;overflow=hidden;rounded=0;" vertex="1" parent="1">
          <mxGeometry x="634" y="349" width="190" height="120" as="geometry" />
        </mxCell>
        <mxCell id="kHE8tbStHbq54br11AbI-32" style="edgeStyle=orthogonalEdgeStyle;rounded=0;orthogonalLoop=1;jettySize=auto;html=1;exitX=0.25;exitY=1;exitDx=0;exitDy=0;entryX=0.25;entryY=0;entryDx=0;entryDy=0;" edge="1" parent="1" source="kHE8tbStHbq54br11AbI-30" target="kHE8tbStHbq54br11AbI-11">
          <mxGeometry relative="1" as="geometry" />
        </mxCell>
        <mxCell id="kHE8tbStHbq54br11AbI-34" style="edgeStyle=orthogonalEdgeStyle;rounded=0;orthogonalLoop=1;jettySize=auto;html=1;exitX=1;exitY=0.5;exitDx=0;exitDy=0;entryX=0.25;entryY=0;entryDx=0;entryDy=0;" edge="1" parent="1" source="kHE8tbStHbq54br11AbI-30" target="kHE8tbStHbq54br11AbI-18">
          <mxGeometry relative="1" as="geometry" />
        </mxCell>
        <mxCell id="kHE8tbStHbq54br11AbI-30" value="Forms" style="rounded=0;whiteSpace=wrap;html=1;strokeWidth=3;" vertex="1" parent="1">
          <mxGeometry x="402" y="-160" width="120" height="81" as="geometry" />
        </mxCell>
        <mxCell id="kHE8tbStHbq54br11AbI-31" value="&lt;h1&gt;Interactive Forms&lt;/h1&gt;&lt;p&gt;Make data alive&lt;/p&gt;" style="text;html=1;strokeColor=none;fillColor=none;spacing=5;spacingTop=-20;whiteSpace=wrap;overflow=hidden;rounded=0;" vertex="1" parent="1">
          <mxGeometry x="394" y="-290" width="190" height="120" as="geometry" />
        </mxCell>
        <mxCell id="kHE8tbStHbq54br11AbI-35" value="&lt;h1&gt;Persistence&lt;/h1&gt;&lt;p&gt;Manage all tables/entries/graph&lt;/p&gt;" style="text;html=1;strokeColor=none;fillColor=none;spacing=5;spacingTop=-20;whiteSpace=wrap;overflow=hidden;rounded=0;" vertex="1" parent="1">
          <mxGeometry x="795" y="20" width="190" height="120" as="geometry" />
        </mxCell>
        <mxCell id="kHE8tbStHbq54br11AbI-36" value="Third-party&lt;br&gt;Services&lt;br&gt;Image/Files/OCR" style="rounded=0;whiteSpace=wrap;html=1;strokeWidth=3;" vertex="1" parent="1">
          <mxGeometry x="160" y="-280" width="120" height="81" as="geometry" />
        </mxCell>
        <mxCell id="kHE8tbStHbq54br11AbI-37" value="&lt;h1&gt;Third-Party&lt;/h1&gt;&lt;p&gt;Manage all plugins&lt;/p&gt;" style="text;html=1;strokeColor=none;fillColor=none;spacing=5;spacingTop=-20;whiteSpace=wrap;overflow=hidden;rounded=0;" vertex="1" parent="1">
          <mxGeometry x="154" y="-171" width="190" height="120" as="geometry" />
        </mxCell>
        <mxCell id="kHE8tbStHbq54br11AbI-39" value="Tracker" style="rounded=0;whiteSpace=wrap;html=1;strokeWidth=3;" vertex="1" parent="1">
          <mxGeometry x="402" y="480" width="120" height="81" as="geometry" />
        </mxCell>
        <mxCell id="kHE8tbStHbq54br11AbI-41" value="&lt;h1&gt;Tracker&lt;/h1&gt;&lt;p&gt;Time it! Measure it!&lt;/p&gt;&lt;p&gt;set due/reminder/flow&lt;/p&gt;" style="text;html=1;strokeColor=none;fillColor=none;spacing=5;spacingTop=-20;whiteSpace=wrap;overflow=hidden;rounded=0;" vertex="1" parent="1">
          <mxGeometry x="394" y="590" width="190" height="120" as="geometry" />
        </mxCell>
        <mxCell id="kHE8tbStHbq54br11AbI-45" style="edgeStyle=orthogonalEdgeStyle;rounded=0;orthogonalLoop=1;jettySize=auto;html=1;exitX=0;exitY=0.25;exitDx=0;exitDy=0;entryX=1;entryY=0.75;entryDx=0;entryDy=0;startArrow=classic;startFill=1;" edge="1" parent="1" source="kHE8tbStHbq54br11AbI-42" target="kHE8tbStHbq54br11AbI-1">
          <mxGeometry relative="1" as="geometry" />
        </mxCell>
        <mxCell id="kHE8tbStHbq54br11AbI-42" value="Todos&lt;br&gt;(Ref)" style="rounded=0;whiteSpace=wrap;html=1;strokeWidth=3;" vertex="1" parent="1">
          <mxGeometry x="402" y="240" width="120" height="81" as="geometry" />
        </mxCell>
      </root>
    </mxGraphModel>
  </diagram>
</mxfile>
